<?xml version="1.0" standalone="no"?>
<!DOCTYPE svg PUBLIC "-//W3C//DTD SVG 20010904//EN"
 "http://www.w3.org/TR/2001/REC-SVG-20010904/DTD/svg10.dtd">
<svg version="1.0" xmlns="http://www.w3.org/2000/svg"
 width="40" height="40" viewBox="0 0 40 40"
 preserveAspectRatio="xMidYMid meet">

<g transform="translate(0.000000,500.000000) scale(0.100000,-0.100000)"
fill="#000000" stroke="none">
<path d="M3040 3404 c-38 -16 -76 -49 -92 -77 -5 -10 -97 -267 -204 -570 -228
-643 -262 -733 -310 -813 -84 -140 -188 -199 -255 -145 -47 38 -38 75 152 606
l174 490 0 105 c0 95 -3 110 -27 156 -55 104 -163 173 -301 193 -102 14 -192
-6 -274 -61 -29 -20 -43 -25 -43 -15 0 16 -34 49 -68 67 -35 17 -123 15 -160
-4 -17 -9 -39 -30 -47 -47 -33 -63 -575 -1603 -575 -1633 0 -74 79 -146 159
-146 49 1 111 30 143 68 32 38 21 9 275 727 113 319 217 602 231 628 46 85
131 137 225 137 39 0 61 -6 80 -20 31 -25 50 -78 41 -116 -3 -16 -78 -231
-165 -479 -87 -247 -164 -477 -170 -510 -31 -169 34 -331 159 -394 91 -46 230
-52 335 -15 47 16 49 16 70 -4 90 -81 225 -38 268 87 l11 31 46 -39 c109 -90
228 -126 397 -118 156 7 266 48 378 140 43 35 52 38 85 32 20 -4 72 -7 114 -6
211 2 393 139 481 363 35 86 34 119 0 158 -48 53 -144 60 -195 13 -11 -10 -33
-47 -49 -82 -39 -85 -70 -125 -122 -155 -47 -27 -107 -41 -107 -25 0 5 9 28
20 49 35 69 53 166 47 265 -5 102 -29 172 -83 248 l-35 48 50 45 c96 87 161
208 182 344 33 212 -104 385 -331 421 -83 13 -172 6 -247 -20 l-51 -17 -14 30
c-29 67 -119 94 -198 60z m415 -354 c14 -5 37 -22 50 -36 50 -54 25 -177 -49
-242 -42 -37 -40 -37 -96 -17 -142 50 -272 -21 -301 -165 -31 -151 86 -264
254 -245 53 6 62 4 83 -16 35 -33 47 -88 34 -156 -5 -31 -12 -58 -14 -60 -2
-3 -29 12 -58 32 -88 58 -150 77 -263 82 -69 3 -117 0 -155 -11 -30 -8 -56
-13 -58 -12 -1 2 56 164 127 361 116 320 134 362 168 397 75 78 200 118 278
88z m-282 -1104 c18 -7 51 -29 75 -49 l42 -35 -41 -36 c-77 -66 -220 -91 -277
-49 -58 43 -48 121 20 163 39 24 132 27 181 6z"/>
</g>
</svg>
